<svg version="1.1" xmlns="http://www.w3.org/2000/svg" xmlns:xlink="http://www.w3.org/1999/xlink" width="100px" height="100px" viewBox="0,0,256,256"><g fill="none" fill-rule="none" stroke="none" stroke-width="1" stroke-linecap="butt" stroke-linejoin="miter" stroke-miterlimit="10" stroke-dasharray="" stroke-dashoffset="0" font-family="none" font-weight="none" font-size="none" text-anchor="none" style="mix-blend-mode: normal"><g transform="scale(2.56,2.56)"><path d="M87.215,56.707c1.136,-2.147 1.785,-4.6 1.785,-7.214c0,-6.613 -4.159,-12.253 -10.001,-14.467c0,-0.013 0.001,-0.013 0.001,-0.026c0,-11.6 -9.401,-21 -21,-21c-9.784,0 -17.981,6.707 -20.313,15.76c-1.476,-0.493 -3.048,-0.76 -4.687,-0.76c-7.692,0 -14.023,5.787 -14.889,13.253c-5.204,1.094 -9.111,5.72 -9.111,11.24c0,6.36 5.149,11.507 11.5,11.507c0.177,0 0.352,-0.013 0.525,-0.027c-0.002,0.174 -0.025,0.347 -0.025,0.52c0,11.334 9.179,20.507 20.5,20.507c6.437,0 12.175,-2.973 15.935,-7.613c2.177,2.226 5.205,3.613 8.565,3.613c4.651,0 8.673,-2.653 10.667,-6.52c1.052,0.333 2.17,0.52 3.333,0.52c6.075,0 11,-4.92 11,-11c0,-3.307 -1.469,-6.267 -3.785,-8.293z" fill="#d4fb48" fill-rule="nonzero"></path><path d="M35.875,40.493c0,0 3.64,0 6.125,0c2.485,0 4.5,-2.013 4.5,-4.493c0,-2.333 -1.781,-4.227 -4.055,-4.453c0.022,-0.187 0.055,-0.36 0.055,-0.547c0,-2.48 -2.015,-4.507 -4.5,-4.507c-1.439,0 -2.703,0.693 -3.527,1.747c-0.14,-2.64 -2.303,-4.747 -4.973,-4.747c-2.761,0 -5,2.24 -5,5c0,0.453 0.077,0.88 0.187,1.293c-0.642,-0.786 -1.6,-1.293 -2.687,-1.293c-1.781,0 -3.233,1.347 -3.455,3.067c-0.181,-0.027 -0.359,-0.067 -0.545,-0.067c-2.485,0 -4.5,2.027 -4.5,4.507c0,2.48 2.015,4.493 4.5,4.493c2.485,0 9.5,0 9.5,0h5.375v0.507h3z" fill="#f5f4dd" fill-rule="nonzero"></path><path d="M29.5,23c-3.033,0 -5.5,2.467 -5.5,5.493c0,0.027 0,0.04 0,0.053c-0.601,-0.359 -1.289,-0.546 -2,-0.546c-1.831,0 -3.411,1.267 -3.857,3c-0.048,0 -0.095,0 -0.143,0c-2.757,0 -5,2.24 -5,5c0,2.76 2.243,5 5,5h14.875c0.276,0 0.5,-0.227 0.5,-0.507c0,-0.267 -0.224,-0.493 -0.5,-0.493h-14.875c-2.205,0 -4,-1.8 -4,-4c0,-2.213 1.795,-4 4,-4c0.117,0 0.231,0.013 0.343,0.027l0.141,0.027c0.021,0 0.041,0 0.063,0c0.245,0 0.461,-0.187 0.495,-0.44c0.19,-1.494 1.462,-2.614 2.958,-2.614c0.885,0 1.723,0.4 2.301,1.093c0.097,0.12 0.241,0.187 0.385,0.187c0.079,0 0.156,-0.013 0.228,-0.053c0.209,-0.107 0.315,-0.347 0.255,-0.573c-0.115,-0.44 -0.169,-0.8 -0.169,-1.16c0,-2.481 2.019,-4.494 4.5,-4.494c2.381,0 4.347,1.867 4.475,4.267c0.011,0.2 0.149,0.387 0.348,0.453c0.051,0.013 0.101,0.013 0.152,0.013c0.151,0 0.296,-0.067 0.392,-0.187c0.772,-0.986 1.912,-1.546 3.133,-1.546c2.207,0 4,1.787 4,4c0,0.12 -0.017,0.227 -0.032,0.347l-0.019,0.133c-0.016,0.133 0.021,0.267 0.105,0.373c0.084,0.107 0.208,0.173 0.34,0.187c2.057,0.2 3.606,1.907 3.606,3.96c0,2.2 -1.793,4 -4,4h-6.125c-0.276,0 -0.5,0.227 -0.5,0.493c0,0.28 0.224,0.507 0.5,0.507h6.125c2.757,0 5,-2.24 5,-5c0,-2.4 -1.689,-4.413 -4.003,-4.88c0.002,-0.04 0.003,-0.08 0.003,-0.12c0,-2.76 -2.243,-5 -5,-5c-1.176,0 -2.293,0.413 -3.183,1.16c-0.598,-2.4 -2.762,-4.16 -5.317,-4.16z" fill="#472b29" fill-rule="nonzero"></path><path d="M28,30c-1.403,0 -2.609,1 -2.913,2.347c-0.367,-0.227 -0.786,-0.347 -1.212,-0.347c-1.201,0 -2.197,0.893 -2.352,2.067c-0.204,-0.04 -0.396,-0.067 -0.584,-0.067c-1.529,0 -2.812,1.2 -2.919,2.733c-0.009,0.133 0.095,0.253 0.231,0.267c0.007,0 0.012,0 0.019,0c0.129,0 0.24,-0.107 0.249,-0.227c0.088,-1.28 1.151,-2.28 2.419,-2.28c0.229,0 0.469,0.053 0.737,0.133c0.023,0 0.045,0.013 0.068,0.013c0.055,0 0.109,-0.027 0.156,-0.053c0.064,-0.053 0.101,-0.133 0.101,-0.213c0,-1.027 0.841,-1.88 1.875,-1.88c0.448,0 0.885,0.173 1.232,0.48c0.047,0.04 0.105,0.067 0.164,0.067c0.032,0 0.064,-0.013 0.093,-0.027c0.088,-0.027 0.148,-0.12 0.155,-0.213c0.104,-1.293 1.193,-2.307 2.481,-2.307c0.208,0 0.425,0.04 0.683,0.107c0.023,0.013 0.047,0.013 0.069,0.013c0.109,0 0.207,-0.067 0.239,-0.173c0.039,-0.133 -0.039,-0.28 -0.172,-0.32c-0.302,-0.08 -0.563,-0.12 -0.819,-0.12z" fill="#472b29" fill-rule="nonzero"></path><path d="M41.883,31.493c-1.325,0 -2.508,0.907 -2.873,2.187c-0.039,0.133 0.039,0.267 0.172,0.307c0.023,0.013 0.046,0.013 0.069,0.013c0.108,0 0.208,-0.067 0.24,-0.187c0.304,-1.066 1.288,-1.813 2.392,-1.813c0.117,0 0.231,0.013 0.343,0.027c0.012,0 0.023,0 0.035,0c0.121,0 0.229,-0.093 0.247,-0.213c0.019,-0.133 -0.077,-0.267 -0.215,-0.28c-0.134,-0.014 -0.27,-0.041 -0.41,-0.041z" fill="#472b29" fill-rule="nonzero"></path><path d="M18.405,55h-9.905c-0.276,0 -0.5,-0.227 -0.5,-0.507c0,-0.266 0.224,-0.493 0.5,-0.493h9.905c0.276,0 0.5,0.227 0.5,0.493c0,0.28 -0.222,0.507 -0.5,0.507z" fill="#ffffff" fill-rule="nonzero"></path><path d="M21.5,55h-1c-0.276,0 -0.5,-0.227 -0.5,-0.507c0,-0.266 0.224,-0.493 0.5,-0.493h1c0.276,0 0.5,0.227 0.5,0.493c0,0.28 -0.223,0.507 -0.5,0.507z" fill="#ffffff" fill-rule="nonzero"></path><path d="M26.491,57h-8.991c-0.276,0 -0.5,-0.227 -0.5,-0.507c0,-0.266 0.224,-0.493 0.5,-0.493h8.991c0.276,0 0.5,0.227 0.5,0.493c0,0.28 -0.224,0.507 -0.5,0.507z" fill="#ffffff" fill-rule="nonzero"></path><path d="M15.5,57h-1c-0.276,0 -0.5,-0.227 -0.5,-0.507c0,-0.266 0.224,-0.493 0.5,-0.493h1c0.276,0 0.5,0.227 0.5,0.493c0,0.28 -0.223,0.507 -0.5,0.507z" fill="#ffffff" fill-rule="nonzero"></path><path d="M12.5,57h-2c-0.276,0 -0.5,-0.227 -0.5,-0.507c0,-0.266 0.224,-0.493 0.5,-0.493h2c0.276,0 0.5,0.227 0.5,0.493c0,0.28 -0.223,0.507 -0.5,0.507z" fill="#ffffff" fill-rule="nonzero"></path><path d="M18.5,59h-2c-0.276,0 -0.5,-0.227 -0.5,-0.507c0,-0.266 0.224,-0.493 0.5,-0.493h2c0.276,0 0.5,0.227 0.5,0.493c0,0.28 -0.224,0.507 -0.5,0.507z" fill="#ffffff" fill-rule="nonzero"></path><path d="M21.5,50c-0.177,0 -0.823,0 -1,0c-0.276,0 -0.5,0.227 -0.5,0.493c0,0.28 0.224,0.507 0.5,0.507c0.177,0 0.823,0 1,0c0.276,0 0.5,-0.227 0.5,-0.507c0,-0.266 -0.224,-0.493 -0.5,-0.493z" fill="#ffffff" fill-rule="nonzero"></path><path d="M21.5,52c-0.177,0 -4.823,0 -5,0c-0.276,0 -0.5,0.227 -0.5,0.493c0,0.28 0.224,0.507 0.5,0.507c0.177,0 4.823,0 5,0c0.276,0 0.5,-0.227 0.5,-0.507c0,-0.266 -0.224,-0.493 -0.5,-0.493z" fill="#ffffff" fill-rule="nonzero"></path><path d="M26.5,54c-0.177,0 -2.823,0 -3,0c-0.276,0 -0.5,0.227 -0.5,0.493c0,0.28 0.224,0.507 0.5,0.507c0.177,0 2.823,0 3,0c0.276,0 0.5,-0.227 0.5,-0.507c0,-0.266 -0.224,-0.493 -0.5,-0.493z" fill="#ffffff" fill-rule="nonzero"></path><path d="M78.5,47h-10c-0.276,0 -0.5,-0.227 -0.5,-0.507c0,-0.266 0.224,-0.493 0.5,-0.493h10c0.276,0 0.5,0.227 0.5,0.493c0,0.28 -0.224,0.507 -0.5,0.507z" fill="#ffffff" fill-rule="nonzero"></path><path d="M82.5,47h-2c-0.276,0 -0.5,-0.227 -0.5,-0.507c0,-0.266 0.224,-0.493 0.5,-0.493h2c0.276,0 0.5,0.227 0.5,0.493c0,0.28 -0.224,0.507 -0.5,0.507z" fill="#ffffff" fill-rule="nonzero"></path><path d="M87.5,49h-10c-0.276,0 -0.5,-0.227 -0.5,-0.507c0,-0.266 0.224,-0.493 0.5,-0.493h10c0.276,0 0.5,0.227 0.5,0.493c0,0.28 -0.223,0.507 -0.5,0.507z" fill="#ffffff" fill-rule="nonzero"></path><path d="M75.5,49h-1c-0.276,0 -0.5,-0.227 -0.5,-0.507c0,-0.266 0.224,-0.493 0.5,-0.493h1c0.276,0 0.5,0.227 0.5,0.493c0,0.28 -0.224,0.507 -0.5,0.507z" fill="#ffffff" fill-rule="nonzero"></path><path d="M72.375,49h-1.875c-0.276,0 -0.5,-0.227 -0.5,-0.507c0,-0.266 0.224,-0.493 0.5,-0.493h1.875c0.276,0 0.5,0.227 0.5,0.493c0,0.28 -0.224,0.507 -0.5,0.507z" fill="#ffffff" fill-rule="nonzero"></path><path d="M81.5,45h-5c-0.276,0 -0.5,-0.227 -0.5,-0.507c0,-0.266 0.224,-0.493 0.5,-0.493h5c0.276,0 0.5,0.227 0.5,0.493c0,0.28 -0.223,0.507 -0.5,0.507z" fill="#ffffff" fill-rule="nonzero"></path><path d="M78.5,51h-2c-0.276,0 -0.5,-0.227 -0.5,-0.507c0,-0.266 0.224,-0.493 0.5,-0.493h2c0.276,0 0.5,0.227 0.5,0.493c0,0.28 -0.224,0.507 -0.5,0.507z" fill="#ffffff" fill-rule="nonzero"></path><path d="M50.757,75.387c-2.719,0 -5.228,-0.493 -7.529,-1.48c-2.3,-0.973 -4.131,-2.573 -5.489,-4.8c-1.36,-2.213 -2.039,-5.16 -2.039,-8.827v-16.96c0,-3.667 0.679,-6.613 2.039,-8.827c1.359,-2.227 3.189,-3.827 5.489,-4.8c2.301,-0.987 4.811,-1.48 7.529,-1.48c3.012,0 5.699,0.507 8.063,1.507c2.363,1 4.235,2.44 5.615,4.32c1.381,1.88 2.071,4.187 2.071,6.907c0,1.92 -0.397,3.2 -1.192,3.813c-0.795,0.613 -2.028,0.933 -3.701,0.933c-1.297,0 -2.416,-0.213 -3.357,-0.64c-0.941,-0.427 -1.453,-1.227 -1.537,-2.373c0,-0.427 -0.052,-0.96 -0.156,-1.6c-0.105,-0.64 -0.324,-1.28 -0.659,-1.92c-0.335,-0.64 -0.879,-1.173 -1.632,-1.6c-0.752,-0.427 -1.799,-0.64 -3.137,-0.64c-1.799,0 -3.189,0.52 -4.172,1.573c-0.983,1.04 -1.475,2.653 -1.475,4.827v16.96c0,2.173 0.503,3.787 1.507,4.827c1.004,1.053 2.405,1.573 4.204,1.573c1.255,0 2.248,-0.213 2.98,-0.64c0.732,-0.427 1.265,-0.973 1.6,-1.627c0.335,-0.667 0.564,-1.36 0.689,-2.08c0.125,-0.733 0.209,-1.413 0.251,-2.053c0.084,-1.2 0.596,-2 1.537,-2.4c0.941,-0.4 2.04,-0.613 3.295,-0.613c1.715,0 2.969,0.32 3.764,0.933c0.795,0.613 1.192,1.893 1.192,3.813c0,2.813 -0.689,5.227 -2.071,7.227c-1.38,2 -3.252,3.533 -5.615,4.573c-2.365,1.054 -5.052,1.574 -8.064,1.574z" fill="#bdf72b" fill-rule="nonzero"></path><path d="M42.952,74.56c-2.439,-1.04 -4.38,-2.747 -5.812,-5.08c-1.449,-2.373 -2.141,-5.453 -2.141,-9.2v-16.96c0,-3.747 0.692,-6.827 2.141,-9.2c1.432,-2.333 3.373,-4.027 5.812,-5.08c2.396,-1.013 5,-1.52 7.805,-1.52c3.089,0 5.872,0.507 8.336,1.56c2.465,1.04 4.443,2.56 5.905,4.547c1.484,2.013 2.207,4.467 2.207,7.32c0,1.96 -0.392,3.533 -1.463,4.36c-0.975,0.773 -2.396,1.08 -4.131,1.08c-1.373,0 -2.595,-0.227 -3.647,-0.707c-1.208,-0.547 -1.848,-1.573 -1.948,-2.947l-0.001,-0.053c0,-0.373 -0.047,-0.867 -0.147,-1.493c-0.092,-0.547 -0.285,-1.12 -0.588,-1.707c-0.261,-0.493 -0.697,-0.933 -1.357,-1.307c-0.604,-0.347 -1.513,-0.547 -2.791,-0.547c-1.659,0 -2.844,0.467 -3.663,1.347c-0.811,0.853 -1.284,2.253 -1.284,4.347v16.96c0,2.08 0.483,3.48 1.312,4.347c0.841,0.88 2.041,1.347 3.699,1.347c1.185,0 2.041,-0.2 2.627,-0.533c0.632,-0.373 1.063,-0.827 1.328,-1.347c0.303,-0.6 0.511,-1.227 0.624,-1.88c0.121,-0.707 0.201,-1.373 0.241,-1.987c0.099,-1.4 0.732,-2.467 1.96,-2.987c1.045,-0.453 2.243,-0.667 3.572,-0.667c1.771,0 3.216,0.307 4.193,1.08c1.071,0.827 1.463,2.4 1.463,4.36c0,2.933 -0.72,5.48 -2.195,7.627c-1.457,2.12 -3.435,3.72 -5.908,4.813c-2.467,1.093 -5.252,1.627 -8.345,1.627c-2.804,0 -5.408,-0.507 -7.804,-1.52zM58.536,73.173c2.252,-1 4.019,-2.44 5.321,-4.333c1.288,-1.867 1.947,-4.133 1.947,-6.827c0,-1.893 -0.403,-2.853 -0.921,-3.253c-0.612,-0.48 -1.676,-0.787 -3.333,-0.787c-1.181,0 -2.181,0.187 -3.019,0.547c-0.655,0.28 -1.045,0.827 -1.115,1.813c-0.043,0.667 -0.131,1.373 -0.26,2.12c-0.137,0.787 -0.388,1.547 -0.755,2.267c-0.404,0.8 -1.04,1.44 -1.872,1.92c-0.879,0.52 -2.009,0.747 -3.332,0.747c-1.941,0 -3.544,-0.573 -4.711,-1.787c-1.179,-1.227 -1.701,-3.053 -1.701,-5.32v-16.96c0,-2.267 0.511,-4.08 1.665,-5.307c1.147,-1.227 2.743,-1.8 4.683,-1.8c1.399,0 2.583,0.227 3.483,0.733c0.847,0.48 1.499,1.107 1.907,1.893c0.367,0.693 0.611,1.4 0.729,2.133c0.053,0.32 0.095,0.627 0.123,0.92l0.04,0.733c0.069,0.933 0.453,1.48 1.128,1.787c0.831,0.373 1.847,0.573 3.069,0.573c1.611,0 2.656,-0.307 3.271,-0.773c0.519,-0.413 0.921,-1.373 0.921,-3.267c0,-2.6 -0.656,-4.76 -1.935,-6.493c-1.297,-1.76 -3.064,-3.133 -5.324,-4.093c-2.264,-0.947 -4.855,-1.44 -7.788,-1.44c-2.633,0 -5.048,0.48 -7.255,1.413c-2.161,0.92 -3.881,2.427 -5.167,4.52c-1.271,2.067 -1.936,4.88 -1.936,8.467v16.96c0,3.587 0.665,6.4 1.936,8.467c1.285,2.093 3.005,3.6 5.167,4.52c2.207,0.947 4.621,1.413 7.255,1.413c2.93,0.001 5.518,-0.506 7.779,-1.506z" fill="#472b29" fill-rule="evenodd"></path><path d="M40.125,67.653c-0.703,-1.147 -1.22,-2.667 -1.467,-4.627c-0.016,-0.133 0.08,-0.253 0.217,-0.28c0.137,-0.013 0.263,0.08 0.28,0.227c0.239,1.907 0.737,3.347 1.395,4.413c0.072,0.12 0.036,0.267 -0.081,0.347c-0.118,0.067 -0.272,0.04 -0.344,-0.08zM38.5,60v-11c0,-0.133 0.112,-0.253 0.251,-0.253c0.137,0 0.249,0.12 0.249,0.253v11c0,0.133 -0.112,0.253 -0.249,0.253c-0.139,0 -0.251,-0.12 -0.251,-0.253zM38.5,46v-2.68c0,-3.36 0.625,-5.733 1.625,-7.373c1.069,-1.733 2.459,-2.933 4.201,-3.68c1.924,-0.827 4.055,-1.253 6.432,-1.253c2.697,0 5.004,0.453 6.967,1.293c1.948,0.827 3.401,1.96 4.453,3.4l0.109,0.147c0.08,0.12 0.053,0.267 -0.059,0.347c-0.112,0.08 -0.268,0.053 -0.348,-0.053l-0.105,-0.148c-0.993,-1.36 -2.369,-2.44 -4.245,-3.24c-1.891,-0.8 -4.128,-1.24 -6.771,-1.24c-2.315,0 -4.379,0.413 -6.236,1.213c-1.644,0.693 -2.953,1.827 -3.972,3.48c-0.936,1.534 -1.551,3.814 -1.551,7.107v2.68c0,0.133 -0.112,0.253 -0.249,0.253c-0.139,0 -0.251,-0.12 -0.251,-0.253zM63.117,42.107c0.045,-0.24 0.088,-0.613 0.088,-1.16c0,-0.68 -0.056,-1.32 -0.161,-1.893c-0.024,-0.147 0.065,-0.28 0.201,-0.293c0.136,-0.027 0.267,0.067 0.291,0.2c0.111,0.613 0.169,1.267 0.169,1.987c0,0.573 -0.045,0.987 -0.096,1.253c-0.027,0.133 -0.157,0.227 -0.292,0.2c-0.136,-0.028 -0.225,-0.161 -0.2,-0.294z" fill="#472b29" fill-rule="evenodd"></path><path d="M72.5,77.493c0,0 1.567,0 3.5,0c1.933,0 3.5,-1.56 3.5,-3.493c0,-1.787 -1.335,-3.24 -3.055,-3.453c0.028,-0.187 0.055,-0.36 0.055,-0.547c0,-1.933 -1.567,-3.507 -3.5,-3.507c-1.032,0 -1.949,0.467 -2.589,1.173c-0.384,-1.813 -1.988,-3.173 -3.911,-3.173c-2.209,0 -4,1.8 -4,4c0,0.2 0.031,0.373 0.056,0.56c-0.428,-0.333 -0.964,-0.56 -1.556,-0.56c-1.228,0 -2.245,0.893 -2.455,2.067c-0.179,-0.04 -0.359,-0.067 -0.545,-0.067c-1.933,0 -3.5,1.573 -3.5,3.507c0,1.933 1.567,3.493 3.5,3.493c1.933,0 7.5,0 7.5,0v0.507h7z" fill="#f5f4dd" fill-rule="nonzero"></path><path d="M74.251,73c-0.139,0 -0.251,-0.107 -0.251,-0.253c0,-1.227 0.995,-2.213 2.217,-2.213c0.035,0.013 0.737,0 1.245,0.133c0.132,0.04 0.212,0.173 0.176,0.307c-0.037,0.133 -0.173,0.213 -0.307,0.173c-0.444,-0.12 -1.1,-0.12 -1.113,-0.12c-0.948,0 -1.719,0.773 -1.719,1.72c0.001,0.146 -0.111,0.253 -0.248,0.253z" fill="#472b29" fill-rule="nonzero"></path><path d="M68,77.493c0,-0.266 -0.224,-0.493 -0.5,-0.493c-0.276,0 -0.5,0.227 -0.5,0.493c0,0.28 0.224,0.507 0.5,0.507c0.276,0 0.5,-0.227 0.5,-0.507z" fill="#472b29" fill-rule="nonzero"></path><path d="M76,78h-3.5c-0.276,0 -0.5,-0.227 -0.5,-0.507c0,-0.266 0.224,-0.493 0.5,-0.493h3.5c1.655,0 3,-1.347 3,-3c0,-1.493 -1.125,-2.773 -2.617,-2.96c-0.135,-0.013 -0.256,-0.093 -0.336,-0.2c-0.081,-0.107 -0.116,-0.24 -0.095,-0.373c0.023,-0.16 0.048,-0.307 0.048,-0.467c0,-1.653 -1.345,-3 -3,-3c-0.849,0 -1.637,0.36 -2.219,1c-0.125,0.133 -0.321,0.2 -0.5,0.147c-0.183,-0.053 -0.321,-0.2 -0.36,-0.373c-0.341,-1.614 -1.78,-2.774 -3.421,-2.774c-1.929,0 -3.5,1.573 -3.5,3.493c0,0.147 0.021,0.28 0.041,0.427c0.029,0.2 -0.063,0.44 -0.243,0.533c-0.179,0.107 -0.396,0.12 -0.556,0c-0.363,-0.293 -0.793,-0.453 -1.242,-0.453c-0.965,0 -1.792,0.693 -1.963,1.64c-0.048,0.267 -0.296,0.453 -0.569,0.413c-0.153,-0.026 -0.308,-0.053 -0.468,-0.053c-1.653,0 -3,1.347 -3,3c0,1.653 1.347,3 3,3h7.5c0.276,0 0.5,0.227 0.5,0.493c0,0.28 -0.224,0.507 -0.5,0.507h-7.5c-2.205,0 -4,-1.8 -4,-4c0,-2.213 1.795,-4 4,-4c0.059,0 0.116,0 0.175,0c0.413,-1.187 1.536,-2 2.825,-2c0.349,0 0.689,0.067 1.011,0.173c0.165,-2.333 2.116,-4.173 4.489,-4.173c1.831,0 3.467,1.12 4.153,2.773c0.68,-0.493 1.502,-0.773 2.347,-0.773c2.207,0 4,1.787 4,4c0,0.053 -0.001,0.093 -0.004,0.147c1.743,0.44 3.004,2.026 3.004,3.853c0,2.2 -1.793,4 -4,4z" fill="#472b29" fill-rule="nonzero"></path><path d="M70.5,77c-0.159,0 -0.841,0 -1,0c-0.276,0 -0.5,0.227 -0.5,0.493c0,0.28 0.224,0.507 0.5,0.507c0.159,0 0.841,0 1,0c0.276,0 0.5,-0.227 0.5,-0.507c0,-0.266 -0.224,-0.493 -0.5,-0.493z" fill="#472b29" fill-rule="nonzero"></path></g></g></svg>